<?xml version="1.0" encoding="UTF-8" standalone="no"?>
<svg
   width="841mm"
   height="594mm"
   viewBox="0 0 841 594.00005"
   version="1.1"
   id="svg1535"
   sodipodi:docname="filos-dlg-Bodywingplan.svg"
   inkscape:version="1.1.1 (3bf5ae0, 2021-09-20)"
   xmlns:inkscape="http://www.inkscape.org/namespaces/inkscape"
   xmlns:sodipodi="http://sodipodi.sourceforge.net/DTD/sodipodi-0.dtd"
   xmlns="http://www.w3.org/2000/svg"
   xmlns:svg="http://www.w3.org/2000/svg">
  <defs
     id="defs1539" />
  <sodipodi:namedview
     id="namedview1537"
     pagecolor="#ffffff"
     bordercolor="#666666"
     borderopacity="1.0"
     inkscape:pageshadow="2"
     inkscape:pageopacity="0.0"
     inkscape:pagecheckerboard="0"
     inkscape:document-units="mm"
     showgrid="false"
     inkscape:zoom="0.18378263"
     inkscape:cx="818.9022"
     inkscape:cy="522.35622"
     inkscape:window-width="1920"
     inkscape:window-height="1061"
     inkscape:window-x="0"
     inkscape:window-y="0"
     inkscape:window-maximized="1"
     inkscape:current-layer="svg1535"
     inkscape:snap-global="true" />
  <g
     id="Sketch002"
     transform="matrix(1,0,0,-1,166.80557,227.37527)">
    <path
       id="Sketch002_w0000"
       d="m 484.82256,8.3234754 c 10.81208,1.0586956 14.29844,1.8199106 16.95438,2.7495436 2.65593,0.929632 4.48144,2.027682 6.34708,3.465905 1.86563,1.438223 3.7714,3.216619 6.87598,8.240638 V 55 c -0.78094,7.263214 -2.20399,10.854714 -3.66653,13.675264 -1.46253,2.82055 -2.96454,4.870151 -4.68684,6.719416 -1.72229,1.849264 -3.66487,3.498193 -5.72039,4.943828 -2.05551,1.445636 -4.22397,2.687978 -7.56135,4.511962 -3.33738,1.823983 -7.84368,4.229608 -18.36489,5.586423 L 0,155 V 0 H 335 L 484.82256,8.3234754 M 335.91516,0 H 0 335"
       stroke="#000000"
       stroke-width="0.35 px"
       style="fill:none;fill-opacity:1;fill-rule:evenodd;stroke-width:0.35;stroke-miterlimit:4;stroke-dasharray:none" />
    <title
       id="title4121">b'filos_wingplan_spline'</title>
  </g>
  <g
     id="Sketch002-9"
     transform="rotate(180,341.82132,197.24841)">
    <path
       id="Sketch002_w0000-1"
       d="m 484.82256,8.3234754 c 10.81208,1.0586956 14.29844,1.8199106 16.95438,2.7495436 2.65593,0.929632 4.48144,2.027682 6.34708,3.465905 1.86563,1.438223 3.7714,3.216619 6.87598,8.240638 V 55 c -0.78094,7.263214 -2.20399,10.854714 -3.66653,13.675264 -1.46253,2.82055 -2.96454,4.870151 -4.68684,6.719416 -1.72229,1.849264 -3.66487,3.498193 -5.72039,4.943828 -2.05551,1.445636 -4.22397,2.687978 -7.56135,4.511962 -3.33738,1.823983 -7.84368,4.229608 -18.36489,5.586423 L 0,155 V 0 H 335 L 484.82256,8.3234754 M 335.91516,0 H 0 335"
       stroke="#000000"
       stroke-width="0.35 px"
       style="fill:none;fill-opacity:1;fill-rule:evenodd;stroke-width:0.35;stroke-miterlimit:4;stroke-dasharray:none" />
    <title
       id="title4121-2">b'filos_wingplan_spline'</title>
  </g>
  <g
     id="Sketch004"
     transform="matrix(1,0,0,-1,280.82982,410.11702)">
    <path
       id="Sketch004_w0000"
       d="m -75.260573,-51.378086 h 140"
       stroke="#000000"
       stroke-width="0.35 px"
       style="fill:none;fill-opacity:1;fill-rule:evenodd;stroke-width:0.35;stroke-miterlimit:4;stroke-dasharray:none" />
    <path
       id="Sketch004_w0001"
       d="m -70.11988,-85.809799 h 64.859307 64.859307 c 1.693866,5.309399 2.267616,7.751999 2.647391,9.869466 0.379775,2.117466 0.565575,3.9098 0.805575,5.8702 0.24,1.9604 0.5342,4.088866 0.785117,6.114833 0.250916,2.025967 0.45855,3.949433 0.61155,5.9057 0.153,1.956267 0.251366,3.945333 0.316983,5.823267 0.06562,1.877933 0.09848,3.644733 0.04388,6.019933 -0.0546,2.3752 -0.196666,5.3588 -0.5358,8.505567 -0.339133,3.146766 -0.875333,6.4567 -1.596966,9.324783 -0.721634,2.868083 -1.6287,5.294317 -2.5695,7.3529 -0.9408,2.058583 -1.915334,3.749517 -3.418984,5.605903 -1.50365,1.856387 -3.536416,3.878227 -5.547333,5.555807 -2.010917,1.67758 -3.999983,3.0109 -6.1507,4.1224 -2.150717,1.1115 -4.463083,2.00118 -6.80505,2.686455 -2.341967,0.685275 -4.713533,1.166145 -7.183467,1.5541193 -2.469933,0.3879744 -5.038233,0.68305303 -7.45015,0.87475303 -2.411916,0.1917 -4.66745,0.28002134 -6.762616,0.33400334 -2.095167,0.053982 -4.029967,0.0736247 -6.8301795,0.0396257 C 7.158275,-0.2840825 3.49265,-0.371723 0.074841,-0.401187 l -5.335414,0.030396 -5.335414,-0.030396 c -3.417809,0.029464 -7.083434,0.1171045 -9.883646,0.15110342 -2.800213,0.0339989 -4.735013,0.0143563 -6.83018,-0.0396257 -2.095166,-0.053982 -4.3507,-0.14230334 -6.762616,-0.33400334 -2.411917,-0.1917 -4.980217,-0.48677858 -7.45015,-0.87475298 -2.469934,-0.3879743 -4.8415,-0.8688444 -7.183467,-1.5541194 -2.341967,-0.6852749 -4.654333,-1.5749549 -6.80505,-2.686455 -2.150717,-1.1114999 -4.139783,-2.44482 -6.1507,-4.1224 -2.010917,-1.67758 -4.043683,-3.69942 -5.547333,-5.555807 -1.50365,-1.856386 -2.478184,-3.54732 -3.418984,-5.605903 -0.9408,-2.058583 -1.847866,-4.484817 -2.5695,-7.3529 -0.721633,-2.868083 -1.257833,-6.178017 -1.596966,-9.324783 -0.339134,-3.146767 -0.4812,-6.130367 -0.5358,-8.505567 -0.0546,-2.3752 -0.02173,-4.142 0.04388,-6.019933 0.06562,-1.877934 0.163983,-3.867 0.316983,-5.823267 0.153,-1.956267 0.360634,-3.879733 0.61155,-5.9057 0.250917,-2.025967 0.545117,-4.154433 0.785117,-6.114833 0.24,-1.9604 0.4258,-3.752734 0.805575,-5.8702 0.379775,-2.117467 0.953525,-4.560067 2.647391,-9.869466"
       stroke="#000000"
       stroke-width="0.35 px"
       style="fill:none;fill-opacity:1;fill-rule:evenodd;stroke-width:0.35;stroke-miterlimit:4;stroke-dasharray:none" />
    <title
       id="title67">b'rudder'</title>
  </g>
  <g
     id="Sketch003"
     transform="matrix(1,0,0,-1,533.46481,497.98348)">
    <path
       id="Sketch003_w0000"
       d="M 98.501098,14.044352 H -2.745949 -103.993 c -4.524,1.756748 -6.348,2.267548 -8.1235,2.899948 -1.7755,0.6324 -3.5025,1.3864 -4.93767,2.103917 -1.43516,0.717516 -2.5785,1.39855 -3.442,2.030933 -0.8635,0.632383 -1.44716,1.216117 -2.0065,1.945783 -0.55933,0.729667 -1.09433,1.605267 -1.447,2.77275 -0.35266,1.167484 -0.523,2.62685 -0.53516,3.976767 -0.0122,1.349917 0.13383,2.590383 0.26766,3.940283 0.13384,1.3499 0.2555,2.809234 0.42567,3.928067 0.17017,1.118833 0.38883,1.897167 0.86117,3.290533 0.47233,1.393367 1.19833,3.401767 1.98533,5.286384 0.787,1.884616 1.635,3.64545 2.7355,5.447033 1.1005,1.801583 2.4535,3.643917 4.25717,5.66215 1.80366,2.018233 4.058,4.212367 6.87266,6.336583 2.81467,2.124217 6.18967,4.178517 9.75212,5.9801 3.56245,1.801584 7.31235,3.35045 10.793233,4.467267 3.480884,1.116817 6.69275,1.801583 10.902109,2.441667 C -71.42285,77.1946 -66.216,77.79 -52.8918,78.244352 H -2.745949 47.399902 C 60.724102,77.79 65.930952,77.1946 70.14031,76.554517 c 4.209359,-0.640084 7.421225,-1.32485 10.902109,-2.441667 3.480883,-1.116817 7.230783,-2.665683 10.793233,-4.467267 3.56245,-1.801583 6.93745,-3.855883 9.752118,-5.9801 2.81467,-2.124216 5.069,-4.31835 6.87267,-6.336583 1.80366,-2.018233 3.15666,-3.860567 4.25716,-5.66215 1.1005,-1.801583 1.9485,-3.562417 2.7355,-5.447033 0.787,-1.884617 1.513,-3.893017 1.98534,-5.286384 0.47233,-1.393366 0.691,-2.1717 0.86116,-3.290533 0.17017,-1.118833 0.29184,-2.578167 0.42567,-3.928067 0.13383,-1.3499 0.27983,-2.590366 0.26767,-3.940283 -0.0122,-1.349917 -0.1825,-2.809283 -0.53517,-3.976767 -0.35267,-1.167483 -0.88767,-2.043083 -1.447,-2.77275 -0.55933,-0.729666 -1.143,-1.3134 -2.0065,-1.945783 -0.8635,-0.632383 -2.00683,-1.313417 -3.442,-2.030933 C 110.1271,18.3307 108.4001,17.5767 106.6246,16.9443 c -1.7755,-0.6324 -3.5995,-1.1432 -8.123502,-2.899948"
       stroke="#000000"
       stroke-width="0.35 px"
       style="fill:none;fill-opacity:1;fill-rule:evenodd;stroke-width:0.35;stroke-miterlimit:4;stroke-dasharray:none" />
    <path
       id="Sketch003_w0001"
       d="M -122.74595,41.406933 H -2.745949 117.25405"
       stroke="#000000"
       stroke-width="0.35 px"
       style="fill:none;fill-opacity:1;fill-rule:evenodd;stroke-width:0.35;stroke-miterlimit:4;stroke-dasharray:none" />
    <title
       id="title82">b'horizontal'</title>
  </g>
</svg>
