<?xml version="1.0"?>
<!DOCTYPE svg PUBLIC "-//W3C//DTD SVG 1.1//EN" "http://www.w3.org/Graphics/SVG/1.1/DTD/svg11.dtd">
<svg width="248.3123380096519mm" height="69.06886937273828mm" viewBox="0 0 248.3123380096519 69.06886937273828" xmlns="http://www.w3.org/2000/svg" version="1.1">
<g id="Sketch003" transform="translate(126.902118,80.678787) scale(1,-1)">
<path id="Sketch003_w0000"  d="M 98.50109800000001 14.044352000000003 L -2.745948999999996 14.044352000000003 L -103.992996 14.044352000000003 C -108.517 15.8011 -110.34100000000001 16.3119 -112.1165 16.944300000000002 C -113.89200000000001 17.576700000000002 -115.619 18.3307 -117.05416666666667 19.04821666666667 C -118.48933333333333 19.765733333333333 -119.63266666666667 20.44676666666667 -120.49616666666667 21.079150000000002 C -121.35966666666667 21.711533333333335 -121.94333333333333 22.29526666666667 -122.50266666666667 23.024933333333337 C -123.062 23.754600000000003 -123.59700000000001 24.630200000000002 -123.94966666666667 25.797683333333335 C -124.30233333333334 26.96516666666667 -124.47266666666667 28.424533333333336 -124.48483333333334 29.77445 C -124.497 31.124366666666667 -124.351 32.36483333333334 -124.21716666666667 33.714733333333335 C -124.08333333333334 35.06463333333333 -123.96166666666667 36.52396666666667 -123.79150000000001 37.6428 C -123.62133333333334 38.761633333333336 -123.40266666666668 39.53996666666667 -122.93033333333334 40.93333333333334 C -122.458 42.3267 -121.732 44.3351 -120.945 46.21971666666666 C -120.158 48.10433333333333 -119.31 49.86516666666667 -118.2095 51.66675 C -117.10900000000001 53.468333333333334 -115.756 55.31066666666666 -113.95233333333334 57.32889999999999 C -112.14866666666668 59.34713333333333 -109.89433333333335 61.54126666666666 -107.07966666666668 63.66548333333333 C -104.26500000000001 65.7897 -100.89000000000001 67.844 -97.32755 69.64558333333333 C -93.76509999999999 71.44716666666667 -90.0152 72.99603333333334 -86.53431666666665 74.11285000000001 C -83.05343333333333 75.22966666666666 -79.84156666666667 75.91443333333333 -75.63220833333332 76.55451666666667 C -71.42285 77.19460000000001 -66.216 77.79 -52.8918 78.244352 L -2.745948999999996 78.244352 L 47.39990200000001 78.244352 C 60.724102 77.79 65.930952 77.19460000000001 70.14031033333333 76.55451666666667 C 74.34966866666667 75.91443333333333 77.56153533333334 75.22966666666667 81.04241866666666 74.11285000000001 C 84.523302 72.99603333333333 88.273202 71.44716666666667 91.83565200000001 69.64558333333333 C 95.39810200000002 67.844 98.77310200000001 65.78969999999998 101.58776866666668 63.66548333333331 C 104.40243533333334 61.54126666666666 106.65676866666668 59.347133333333325 108.46043533333335 57.32889999999999 C 110.26410200000001 55.310666666666656 111.61710200000002 53.46833333333333 112.71760200000001 51.66674999999999 C 113.81810200000001 49.86516666666667 114.66610200000001 48.10433333333333 115.453102 46.21971666666666 C 116.24010200000001 44.3351 116.966102 42.326699999999995 117.43843533333333 40.93333333333332 C 117.91076866666668 39.539966666666665 118.12943533333335 38.761633333333336 118.29960200000002 37.64280000000001 C 118.46976866666668 36.523966666666674 118.59143533333335 35.06463333333335 118.72526866666668 33.71473333333334 C 118.85910200000001 32.364833333333344 119.00510200000001 31.124366666666667 118.99293533333335 29.774449999999998 C 118.98076866666668 28.42453333333333 118.81043533333334 26.965166666666665 118.45776866666668 25.79768333333333 C 118.10510200000002 24.630200000000002 117.57010200000002 23.754600000000003 117.01076866666668 23.024933333333337 C 116.45143533333334 22.295266666666674 115.86776866666668 21.711533333333335 115.00426866666668 21.07915 C 114.14076866666667 20.446766666666665 112.99743533333334 19.76573333333333 111.56226866666668 19.04821666666666 C 110.12710200000001 18.330699999999993 108.400102 17.576699999999995 106.62460200000001 16.9443 C 104.84910200000002 16.3119 103.025102 15.80110000000001 98.50109800000001 14.044352000000003 " stroke="#000000" stroke-width="0.35 px" style="stroke-width:0.35;stroke-miterlimit:4;stroke-dasharray:none;fill:none;fill-opacity:1;fill-rule: evenodd"/>
<path id="Sketch003_w0001"  d="M -122.745949 41.406933 L -2.7459489999999973 41.406933 L 117.254051 41.406933 " stroke="#000000" stroke-width="0.35 px" style="stroke-width:0.35;stroke-miterlimit:4;stroke-dasharray:none;fill:none;fill-opacity:1;fill-rule: evenodd"/>
<title>b'horizontal'</title>
</g>
</svg>