<?xml version="1.0"?>
<!DOCTYPE svg PUBLIC "-//W3C//DTD SVG 1.1//EN" "http://www.w3.org/Graphics/SVG/1.1/DTD/svg11.dtd">
<svg width="142.8mm" height="88.3605704096185mm" viewBox="0 0 142.8 88.3605704096185" xmlns="http://www.w3.org/2000/svg" version="1.1">
<g id="Sketch004" transform="translate(76.660573,1.150771) scale(1,-1)">
<path id="Sketch004_w0000"  d="M -75.260573 -51.378085999999996 L 64.739427 -51.378085999999996 " stroke="#000000" stroke-width="0.35 px" style="stroke-width:0.35;stroke-miterlimit:4;stroke-dasharray:none;fill:none;fill-opacity:1;fill-rule: evenodd"/>
<path id="Sketch004_w0001"  d="M -70.1198798752538 -85.809799 L -5.260572999999987 -85.809799 L 59.598733875253814 -85.809799 C 61.2926 -80.5004 61.86635 -78.0578 62.246125 -75.94033333333334 C 62.6259 -73.82286666666667 62.8117 -72.03053333333334 63.051700000000004 -70.07013333333333 C 63.291700000000006 -68.10973333333334 63.5859 -65.98126666666667 63.836816666666664 -63.9553 C 64.08773333333333 -61.92933333333333 64.29536666666667 -60.00586666666666 64.44836666666666 -58.0496 C 64.60136666666666 -56.093333333333334 64.69973333333333 -54.10426666666666 64.76534999999998 -52.22633333333333 C 64.83096666666667 -50.348400000000005 64.86383333333333 -48.5816 64.80923333333334 -46.2064 C 64.75463333333333 -43.831199999999995 64.61256666666665 -40.84759999999999 64.27343333333332 -37.70083333333332 C 63.93430000000001 -34.554066666666664 63.3981 -31.244133333333334 62.67646666666667 -28.376050000000003 C 61.95483333333334 -25.50796666666667 61.047766666666675 -23.081733333333332 60.10696666666667 -21.02315 C 59.16616666666667 -18.964566666666666 58.191633333333336 -17.273633333333333 56.687983333333335 -15.417246666666665 C 55.184333333333335 -13.560859999999998 53.15156666666666 -11.539019999999997 51.140649999999994 -9.861439999999996 C 49.129733333333334 -8.18386 47.140666666666675 -6.8505400000000005 44.98995000000001 -5.739040000000003 C 42.83923333333334 -4.6275400000000015 40.52686666666667 -3.737860000000001 38.1849 -3.0525850000000005 C 35.842933333333335 -2.36731 33.47136666666667 -1.88644 31.00143333333333 -1.4984656666666665 C 28.531499999999994 -1.110491333333333 25.963199999999993 -0.8154126666666661 23.551283333333323 -0.6237126666666661 C 21.139366666666664 -0.43201266666666654 18.883833333333335 -0.34369133333333335 16.78866666666667 -0.28970933333333343 C 14.693500000000002 -0.23572733333333334 12.758700000000001 -0.21608466666666667 9.9584875 -0.25008358333333336 C 7.158275 -0.2840825 3.49265 -0.371723 0.07484100000000016 -0.40118700000000007 L -5.26057299999999 -0.370791 L -10.59598699999998 -0.40118700000000007 C -14.01379599999998 -0.371723 -17.679420999999977 -0.2840825 -20.479633499999977 -0.25008358333333336 C -23.279845999999978 -0.2160846666666667 -25.21464599999998 -0.23572733333333334 -27.309812666666648 -0.2897093333333334 C -29.404979333333316 -0.3436913333333334 -31.660512666666648 -0.4320126666666666 -34.072429333333304 -0.623712666666666 C -36.484345999999974 -0.8154126666666659 -39.052645999999974 -1.1104913333333326 -41.52257933333331 -1.4984656666666658 C -43.99251266666664 -1.8864399999999992 -46.364079333333315 -2.3673099999999994 -48.706045999999986 -3.0525849999999997 C -51.04801266666666 -3.7378600000000004 -53.36037933333333 -4.6275400000000015 -55.51109599999998 -5.739040000000002 C -57.66181266666665 -6.8505400000000005 -59.65087933333331 -8.183859999999997 -61.66179599999997 -9.861439999999995 C -63.67271266666664 -11.539019999999997 -65.70547933333333 -13.560860000000003 -67.20912933333332 -15.417246666666673 C -68.71277933333332 -17.273633333333333 -69.68731266666664 -18.96456666666666 -70.62811266666664 -21.023149999999987 C -71.56891266666663 -23.08173333333332 -72.4759793333333 -25.50796666666666 -73.19761266666664 -28.376049999999996 C -73.91924599999999 -31.24413333333333 -74.455446 -34.554066666666664 -74.79457933333333 -37.700833333333335 C -75.13371266666665 -40.8476 -75.27577933333332 -43.831199999999995 -75.33037933333333 -46.206399999999995 C -75.38497933333332 -48.581599999999995 -75.35211266666666 -50.34839999999999 -75.286496 -52.22633333333332 C -75.22087933333333 -54.10426666666665 -75.12251266666667 -56.09333333333332 -74.96951266666666 -58.049599999999984 C -74.81651266666665 -60.00586666666665 -74.60887933333332 -61.92933333333332 -74.35796266666665 -63.95529999999999 C -74.10704599999998 -65.98126666666666 -73.81284599999998 -68.10973333333334 -73.57284599999998 -70.07013333333333 C -73.33284599999999 -72.03053333333332 -73.14704599999999 -73.82286666666664 -72.767271 -75.94033333333331 C -72.38749599999998 -78.05779999999997 -71.81374599999998 -80.50039999999997 -70.1198798752538 -85.809799 " stroke="#000000" stroke-width="0.35 px" style="stroke-width:0.35;stroke-miterlimit:4;stroke-dasharray:none;fill:none;fill-opacity:1;fill-rule: evenodd"/>
<title>b'rudder'</title>
</g>
</svg>