<?xml version="1.0"?>
<!DOCTYPE svg PUBLIC "-//W3C//DTD SVG 1.1//EN" "http://www.w3.org/Graphics/SVG/1.1/DTD/svg11.dtd">
<svg width="44.88228073208885mm" height="59.46994843271156mm" viewBox="0 0 44.88228073208885 59.46994843271156" xmlns="http://www.w3.org/2000/svg" version="1.1">
<g id="Sketch004002" transform="translate(47.440022,-10.116084) scale(1,-1)">
<path id="Sketch004002_w0000"  d="M -47.00000000000003 -26.177294 L -47.000000000000014 -26.147127718400544 M -47.000000000000014 -26.14712771840055 L -46.97639375666638 -25.1282213263334 L -46.905625683611575 -24.111501418809336 L -46.787847642968444 -23.099149788365693 L -46.623312376173686 -22.093338853596936 L -46.41237296160666 -21.096226997333186 L -46.15548205691391 -20.109953934938307 L -45.85319092764519 -19.13663612266676 L -45.50614826428553 -18.178362215932438 L -45.11509879022181 -17.237188587235735 L -44.680881663631155 -16.315134913366922 L -44.20442867672042 -15.414179841355296 L -43.6867622561811 -14.536256742464722 L -43.128993269150534 -13.68324956334691 L -42.53231863938764 -12.856988783255696 L -41.898018778778514 -12.059247485997695 L -41.22745483968387 -11.291737555048588 L -40.522065794024385 -10.556105999999987 L -9.475698194123723 -10.556106000000002 M -9.475698194123728 -10.556105999999996 L -8.770304532838711 -11.29174259732872 L -8.099736455056753 -12.059257987252776 L -7.465432960877713 -12.857005126378152 L -6.868755228713898 -13.6832720957351 L -6.310983694280374 -14.536285774456687 L -5.793315302854335 -15.414215644793062 L -5.316860940700199 -16.315177720296106 L -4.882643051172234 -17.237238588744795 L -4.491593440610615 -18.178419561135346 L -4.144551278739165 -19.136700917832876 L -3.8422612978559805 -20.110026242772133 L -3.5853721946811845 -21.09630683640688 L -3.3744352382915075 -22.09342619793765 L -3.209903087128886 -23.09924456719935 L -3.0921288176218056 -24.111603516462175 L -3.021365166503781 -25.128330582291994 L -2.997763988455045 -26.14724392753053 L -2.997763988148211 -47.14489170622709 M -2.997763988148211 -47.14489170622708 L -3.020564326524788 -48.14626377274882 L -3.088918084500733 -49.14556034274725 L -3.2026835884745815 -50.140710221481946 L -3.3616250420666063 -51.129650808863296 L -3.5654130148428322 -52.1103323745062 L -3.8136251251099225 -53.0807223061094 L -4.1057469153657244 -54.038809322354716 L -4.441172918591015 -54.98260764159478 L -4.819207913172374 -55.910161097688814 L -5.239068363855097 -56.81954719445553 L -5.699884045739687 -57.70888109034015 L -6.200699847955875 -58.57631950503635 L -6.740477753275705 -59.42006453996612 L -7.318098989562753 -60.238367404699154 L -7.932366348598286 -61.0295320415881 L -8.582006667478026 -61.79191864110694 L -9.265673467436768 -62.523947040606764 L -9.981949744631187 -63.22409999944406 L -10.72935090709669 -63.89092634369365 L -11.506327851791031 -64.52304397392837 L -12.31127017534684 -65.11914272983103 L -13.142509511878552 -65.67798710570179 L -13.998322990925535 -66.19841881123249 L -14.876936808364114 -66.67935917224008 L -15.776529902887532 -67.11981136638362 L -16.69523773043365 -67.5188624892308 L -17.63115612873715 -67.8756854463918 L -18.582345263996643 -68.18954066779867 L -19.546833651476522 -68.45977764057733 L -20.522622241710003 -68.68583625733473 L -21.507688563834485 -68.86724797706697 L -22.49999091747131 -69.00363679628218 L -23.49747260446145 -69.09472002832506 L -24.498066191686647 -69.14030888928819 L -25.499697796140154 -69.14030888929551 L -26.50029138336602 -69.094720028347 L -27.497773070357486 -69.0036367963187 L -28.490075423996306 -68.86724797711798 L -29.47514174612344 -68.68583625740013 L -30.450930336360223 -68.45977764065701 L -31.41541872384405 -68.18954066789244 L -32.36660785910815 -67.87568544649946 L -33.302526257416844 -67.51886248935214 L -34.22123408496878 -67.1198113665184 L -35.120827179498654 -66.679359172388 L -35.99944099694426 -66.19841881139325 L -36.85525447599885 -65.67798710587505 L -37.68649381253873 -65.11914273001642 L -38.491436136103246 -64.52304397412554 L -39.26841308080681 -63.890926343902194 L -40.01581424328207 -63.22409999966351 L -40.73209052048672 -62.52394704083669 L -41.415757320456166 -61.791918641346854 L -42.065397639347054 -61.02953204183749 L -42.679664998394145 -60.238367404957536 L -43.25728623469315 -59.42006454023294 L -43.7970641400253 -58.57631950531106 L -44.29787994225417 -57.70888109062218 L -44.75869562415177 -56.819547194744274 L -45.17855607484777 -55.91016109798371 L -45.55659106944268 -54.98260764189521 L -45.89201707268177 -54.03880932266004 L -46.18413886295157 -53.080722306419 L -46.43235097323284 -52.11033237481942 L -46.636138946023394 -51.12965080917947 L -46.79508039962987 -50.14071022180047 L -46.90884590361826 -49.14556034306746 L -46.977199661608815 -48.146263773070004 L -47.00000000000003 -47.1448917065486 L -47.000000000000014 -27.275797 " stroke="#000000" stroke-width="0.35 px" style="stroke-width:0.35;stroke-miterlimit:4;stroke-dasharray:none;fill:none;fill-opacity:1;fill-rule: evenodd"/>
<title>b'back_s'</title>
</g>
</svg>